<svg xmlns="http://www.w3.org/2000/svg" xmlns:xlink="http://www.w3.org/1999/xlink"><symbol id="icon-arrow-up" viewBox="0 0 9 16">
<path fill-rule="evenodd" clip-rule="evenodd" d="M0.307488 5.31736C0.249284 5.2593 0.203105 5.19033 0.171597 5.1144C0.140089 5.03847 0.123871 4.95707 0.123871 4.87486C0.123871 4.79265 0.140089 4.71125 0.171597 4.63532C0.203105 4.55939 0.249284 4.49042 0.307488 4.43236L4.05749 0.682359C4.11555 0.624155 4.18452 0.577977 4.26045 0.546469C4.33638 0.514961 4.41778 0.498742 4.49999 0.498742C4.5822 0.498742 4.6636 0.514961 4.73953 0.546469C4.81546 0.577977 4.88443 0.624155 4.94249 0.682359L8.69249 4.43236C8.80985 4.54972 8.87578 4.70889 8.87578 4.87486C8.87578 5.04083 8.80985 5.2 8.69249 5.31736C8.57513 5.43472 8.41596 5.50065 8.24999 5.50065C8.08402 5.50065 7.92485 5.43472 7.80749 5.31736L4.49999 2.00861L1.19249 5.31736C1.13443 5.37556 1.06546 5.42174 0.98953 5.45325C0.913599 5.48476 0.832197 5.50098 0.749988 5.50098C0.667779 5.50098 0.586377 5.48476 0.510446 5.45325C0.434514 5.42174 0.365545 5.37556 0.307488 5.31736Z" fill="currentcolor"/>
<path fill-rule="evenodd" clip-rule="evenodd" d="M4.5 15.5C4.33424 15.5 4.17527 15.4342 4.05806 15.3169C3.94085 15.1997 3.875 15.0408 3.875 14.875L3.875 1.75C3.875 1.58424 3.94085 1.42527 4.05806 1.30806C4.17527 1.19085 4.33424 1.125 4.5 1.125C4.66576 1.125 4.82473 1.19085 4.94194 1.30806C5.05915 1.42527 5.125 1.58424 5.125 1.75L5.125 14.875C5.125 15.0408 5.05915 15.1997 4.94194 15.3169C4.82473 15.4342 4.66576 15.5 4.5 15.5Z" fill="currentcolor"/>
</symbol><symbol id="icon-clock" viewBox="0 0 10 10">
<path d="M5 0.625C2.58398 0.625 0.625 2.58398 0.625 5C0.625 7.41602 2.58398 9.375 5 9.375C7.41602 9.375 9.375 7.41602 9.375 5C9.375 2.58398 7.41602 0.625 5 0.625ZM6.72363 6.34473L6.44434 6.72559C6.43826 6.73388 6.43061 6.74089 6.42181 6.74622C6.41302 6.75154 6.40326 6.75508 6.3931 6.75662C6.38294 6.75816 6.37257 6.75768 6.36259 6.75521C6.35261 6.75273 6.34322 6.7483 6.33496 6.74219L4.71973 5.56445C4.70966 5.55723 4.70148 5.54769 4.69588 5.53664C4.69027 5.5256 4.6874 5.51336 4.6875 5.50098V2.8125C4.6875 2.76953 4.72266 2.73438 4.76562 2.73438H5.23535C5.27832 2.73438 5.31348 2.76953 5.31348 2.8125V5.22949L6.70605 6.23633C6.74121 6.26074 6.74902 6.30957 6.72363 6.34473Z" fill="white"/>
</symbol><symbol id="icon-close" viewBox="0 0 14 14">
<path d="M12.3001 13.4833L7.00006 8.175L1.70006 13.4833L0.516724 12.3L5.82506 7L0.516724 1.7L1.70006 0.516663L7.00006 5.825L12.3001 0.524996L13.4751 1.7L8.17506 7L13.4751 12.3L12.3001 13.4833Z" fill="currentColor"/>
</symbol><symbol id="icon-search" viewBox="0 0 14 15">
<path fill-rule="evenodd" clip-rule="evenodd" d="M10.0276 9.52893L13.7934 13.2948C13.9257 13.4273 14.0001 13.6069 14 13.7942C13.9999 13.9814 13.9255 14.161 13.793 14.2934C13.6606 14.4257 13.481 14.5001 13.2937 14.5C13.1064 14.4999 12.9269 14.4255 12.7945 14.293L9.0287 10.5271C7.90295 11.3991 6.48731 11.8094 5.06977 11.6746C3.65223 11.5399 2.33927 10.8701 1.39799 9.80165C0.456712 8.73318 -0.0421836 7.34624 0.0027973 5.92299C0.0477782 4.49973 0.633257 3.14707 1.64013 2.14017C2.647 1.13327 3.99963 0.547779 5.42285 0.502797C6.84607 0.457815 8.23297 0.956724 9.30142 1.89803C10.3699 2.83933 11.0396 4.15233 11.1743 5.5699C11.3091 6.98748 10.8988 8.40315 10.0269 9.52893H10.0276ZM5.60026 10.2996C6.71412 10.2996 7.78235 9.85712 8.56997 9.06948C9.35759 8.28185 9.80007 7.21358 9.80007 6.0997C9.80007 4.98581 9.35759 3.91755 8.56997 3.12992C7.78235 2.34228 6.71412 1.89979 5.60026 1.89979C4.4864 1.89979 3.41817 2.34228 2.63055 3.12992C1.84293 3.91755 1.40046 4.98581 1.40046 6.0997C1.40046 7.21358 1.84293 8.28185 2.63055 9.06948C3.41817 9.85712 4.4864 10.2996 5.60026 10.2996Z" fill="currentcolor"/>
</symbol></svg>